# xmcd
# 
# Track frame offsets:
#     150
#     15128
#     27520
#     44010
#     58820
#     76653
#     90018
#     109281
#     124437
#     137578
#     155874
#     168810
#     181373
#     196108
# 
# Disc length: 2822
# 
# Revision: 12
# Processed by: cddbd v1.5.2PL0 Copyright (c) Steve Scherf et al.
# Submitted via: fre:ac v1.0.17
# 
DISCID=ae0b040e
DTITLE=Mayck E Lyan - Defendendo A Tradição
DYEAR=2006
DGENRE=Country
TTITLE0=Pra Não Te Perder
TTITLE1=Viola Na Cachola
TTITLE2=Prisioneiro
TTITLE3=Em Tempo De Avanço/Na Barba Do Leão
TTITLE4=A Correnteza
TTITLE5=Defendendo A Tradição
TTITLE6=Meu Erro
TTITLE7=Armadilha
TTITLE8=Modão De Cabra Macho
TTITLE9=Segundo Sol
TTITLE10=O Preço Da Glória
TTITLE11=Deixa A Poiera Voar
TTITLE12=Caboclo Sertanejo
TTITLE13=Querida (Don't Let Them Move)
EXTD=YEAR: 2006
EXTT0=
EXTT1=
EXTT2=
EXTT3=
EXTT4=
EXTT5=
EXTT6=
EXTT7=
EXTT8=
EXTT9=
EXTT10=
EXTT11=
EXTT12=
EXTT13=
PLAYORDER=
